<svg width="79" height="35" viewBox="0 0 79 35" fill="none" xmlns="http://www.w3.org/2000/svg">
<path d="M13.3219 19.4084C13.2702 20.4228 13.089 21.3027 12.7785 22.048C12.468 22.7829 12.0694 23.4143 11.5829 23.9422C11.1068 24.4598 10.5634 24.8842 9.95263 25.2154C9.35227 25.5363 8.74155 25.7899 8.12048 25.9762C7.50976 26.1625 6.90422 26.2868 6.30385 26.3489C5.71384 26.4213 5.1911 26.4575 4.73565 26.4575C3.8558 26.4575 3.02771 26.4317 2.25138 26.3799C1.48539 26.3282 0.734932 26.2402 0 26.116C0.0621069 25.4638 0.113863 24.7496 0.155267 23.9733C0.196672 23.1866 0.232901 22.3895 0.263954 21.5822C0.295008 20.7644 0.31571 19.9622 0.326061 19.1755C0.336412 18.3888 0.346764 17.6642 0.357115 17.0018C0.367466 16.3289 0.372641 15.7493 0.372641 15.2628C0.372641 14.7659 0.372641 14.4088 0.372641 14.1914C0.36229 12.7112 0.341588 11.2828 0.310535 9.90605C0.300183 9.31604 0.284657 8.71567 0.263954 8.10495C0.253603 7.48388 0.238077 6.88352 0.217374 6.30385C0.207023 5.71384 0.191496 5.16005 0.170794 4.64249C0.150092 4.11458 0.124214 3.64878 0.0931604 3.24509C0.382993 3.20368 0.698703 3.17263 1.04029 3.15193C1.39223 3.13122 1.73899 3.1157 2.08058 3.10535C2.43252 3.08464 2.77411 3.07429 3.10535 3.07429C3.44693 3.06394 3.75747 3.05877 4.03695 3.05877C5.28944 3.05877 6.46947 3.15193 7.57704 3.33825C8.69497 3.52457 9.66798 3.84545 10.4961 4.3009C11.3345 4.746 11.9918 5.34119 12.468 6.08648C12.9545 6.82141 13.1977 7.74266 13.1977 8.85024C13.146 9.52306 12.9803 10.1545 12.7009 10.7445C12.5767 11.0033 12.4214 11.2672 12.2351 11.5364C12.0591 11.7951 11.8365 12.0436 11.5674 12.2816C11.2983 12.5197 10.9826 12.7423 10.6203 12.9493C10.258 13.1563 9.84395 13.3271 9.37814 13.4617C10.051 13.6376 10.6151 13.9016 11.0706 14.2535C11.526 14.6055 11.8986 14.9988 12.1885 15.4336C12.4887 15.858 12.7112 16.2979 12.8561 16.7533C13.0114 17.2088 13.1201 17.628 13.1822 18.011C13.2547 18.394 13.2961 18.7149 13.3064 18.9737C13.3168 19.2324 13.3219 19.3774 13.3219 19.4084ZM8.95892 19.5637C8.92787 18.6942 8.78295 17.9127 8.52417 17.2191C8.41031 16.9293 8.2654 16.6447 8.08943 16.3652C7.92381 16.0753 7.71678 15.8217 7.46836 15.6044C7.21993 15.3766 6.92492 15.1955 6.58333 15.0609C6.24175 14.9264 5.8484 14.8591 5.4033 14.8591C5.28944 14.8591 5.1704 14.8643 5.04619 14.8746C4.92197 14.885 4.78741 14.9005 4.64249 14.9212L4.51828 23.6938C4.82881 23.7559 5.13417 23.7869 5.43436 23.7869C5.8691 23.7869 6.24692 23.73 6.56781 23.6162C6.89904 23.4919 7.18888 23.3315 7.4373 23.1348C7.68573 22.9278 7.89275 22.7001 8.05837 22.4517C8.23434 22.2032 8.37926 21.9444 8.49312 21.6753C8.76225 21.0542 8.91752 20.3504 8.95892 19.5637ZM8.89682 8.75708C8.85541 8.17741 8.71049 7.65985 8.46207 7.2044C8.35856 7.00773 8.22399 6.81623 8.05837 6.62991C7.90311 6.44359 7.70643 6.27797 7.46836 6.13306C7.24063 5.98814 6.96633 5.8691 6.64544 5.77594C6.33491 5.68278 5.97262 5.6362 5.55857 5.6362C5.22733 5.6362 4.85987 5.66726 4.45617 5.72936L4.64249 12.3127H4.98408C5.62585 12.3127 6.16929 12.2299 6.61439 12.0643C7.05949 11.8883 7.42695 11.6761 7.71678 11.4277C8.00662 11.1689 8.22917 10.8894 8.38443 10.5892C8.55005 10.289 8.66909 10.0096 8.74155 9.75079C8.81401 9.48166 8.85541 9.25911 8.86576 9.08314C8.88646 8.89682 8.89682 8.78813 8.89682 8.75708Z" fill="#F5F5F5"/>
<path d="M22.4361 26.1781C22.374 25.8572 22.3171 25.5311 22.2653 25.1999C22.2136 24.8686 22.1722 24.5271 22.1411 24.1751C21.665 24.879 21.0956 25.4173 20.4332 25.7899C19.7707 26.1729 19.0461 26.3644 18.2594 26.3644C17.8557 26.3644 17.4417 26.2971 17.0173 26.1625C16.5929 26.0383 16.2047 25.8158 15.8528 25.4949C15.5112 25.174 15.2265 24.7393 14.9988 24.1906C14.7814 23.6317 14.6728 22.9278 14.6728 22.079C14.6728 21.3751 14.7763 20.7644 14.9833 20.2469C15.1903 19.7189 15.4594 19.2583 15.7907 18.865C16.1219 18.4716 16.4946 18.13 16.9086 17.8402C17.3227 17.5504 17.7315 17.2916 18.1352 17.0639C18.5493 16.8362 18.9426 16.624 19.3153 16.4273C19.6879 16.2306 19.9933 16.0339 20.2313 15.8373C20.6868 15.475 21.0801 15.092 21.4114 14.6883C21.7529 14.2742 22.0273 13.8447 22.2343 13.3996C22.1929 12.6853 22.1152 12.1005 22.0014 11.645C21.8979 11.1792 21.7581 10.8118 21.5822 10.5426C21.4062 10.2632 21.1888 10.0717 20.93 9.96816C20.6816 9.8543 20.3969 9.79737 20.0761 9.79737C19.5999 9.79737 19.1962 9.90088 18.865 10.1079C18.5441 10.3149 18.2801 10.5634 18.0731 10.8532C18.3319 11.0188 18.5286 11.1948 18.6631 11.3811C18.808 11.5674 18.9167 11.7486 18.9892 11.9245C19.072 12.1212 19.1186 12.323 19.1289 12.5301C19.1289 13.2339 18.9271 13.7722 18.5234 14.1448C18.13 14.5175 17.6228 14.7038 17.0018 14.7038C16.6809 14.7038 16.3859 14.6314 16.1167 14.4864C15.8476 14.3312 15.6095 14.119 15.4025 13.8498C15.2058 13.5807 15.0506 13.2598 14.9367 12.8872C14.8229 12.5145 14.7659 12.1108 14.7659 11.6761C14.7659 11.2414 14.8643 10.7807 15.0609 10.2942C15.2576 9.80772 15.5733 9.35744 16.0081 8.9434C16.4428 8.519 17.0018 8.17223 17.6849 7.9031C18.3681 7.62362 19.1962 7.48388 20.1692 7.48388C21.1422 7.48388 21.9755 7.67538 22.669 8.05837C23.3626 8.43101 23.9319 8.93304 24.377 9.56447C24.8221 10.1855 25.143 10.9049 25.3396 11.7227C25.5466 12.5404 25.6502 13.384 25.6502 14.2535C25.6502 14.9057 25.645 15.6147 25.6346 16.3807C25.6243 17.1467 25.6191 17.9334 25.6191 18.7408C25.6191 19.4136 25.6243 20.0864 25.6346 20.7592C25.645 21.4321 25.6657 22.0842 25.6967 22.7156C25.7278 23.3367 25.7692 23.9267 25.821 24.4857C25.8727 25.0343 25.94 25.5259 26.0228 25.9607L22.4361 26.1781ZM22.2032 17.0794C21.8409 17.5142 21.4528 17.8868 21.0387 18.1973C20.7282 18.4147 20.3918 18.658 20.0295 18.9271C19.6775 19.1962 19.3463 19.4809 19.0358 19.7811C18.7356 20.0812 18.482 20.3969 18.275 20.7282C18.0783 21.0491 17.98 21.3803 17.98 21.7219C17.98 22.1877 18.0938 22.5862 18.3215 22.9175C18.5493 23.2487 18.8702 23.4143 19.2842 23.4143C19.6672 23.4143 20.0088 23.3108 20.309 23.1038C20.6091 22.8968 20.8731 22.6431 21.1008 22.343C21.3389 22.0324 21.5356 21.7012 21.6908 21.3493C21.8565 20.9973 21.9858 20.6764 22.079 20.3866L22.2032 17.0794Z" fill="#F5F5F5"/>
<path d="M32.0161 8.33785L31.923 9.61105C32.2645 9.04173 32.6268 8.60698 33.0098 8.3068C33.4032 8.00662 33.7655 7.79442 34.0967 7.6702C34.4279 7.54599 34.7022 7.47871 34.9196 7.46836C35.1473 7.45801 35.2716 7.45283 35.2923 7.45283C36.0582 7.45283 36.7259 7.6288 37.2952 7.98074C37.8645 8.33268 38.3355 8.84506 38.7081 9.51788C39.0808 10.1804 39.3551 10.9929 39.5311 11.9556C39.7174 12.9079 39.8105 13.9896 39.8105 15.2007C39.8105 16.0909 39.795 17.0018 39.764 17.9334C39.7432 18.8546 39.6915 19.7759 39.6087 20.6971C39.5362 21.608 39.4327 22.4982 39.2982 23.3677C39.1739 24.2372 39.0031 25.0653 38.7858 25.852L35.168 25.4173C35.4061 24.1855 35.5924 23.0365 35.727 21.9703C35.8616 20.9042 35.9599 19.9725 36.022 19.1755C36.0945 18.2439 36.1359 17.3899 36.1462 16.6136C36.1462 15.6302 36.1152 14.7763 36.0531 14.0517C35.991 13.3168 35.8771 12.7112 35.7115 12.2351C35.5562 11.7486 35.3388 11.3863 35.0594 11.1482C34.7799 10.9101 34.4228 10.7911 33.988 10.7911C33.6982 10.8532 33.4083 11.0602 33.1185 11.4121C32.8701 11.7123 32.6061 12.1937 32.3267 12.8561C32.0472 13.5083 31.8039 14.4295 31.5969 15.6199C31.5658 16.4273 31.5451 17.2295 31.5348 18.0265C31.5348 18.8132 31.5348 19.6517 31.5348 20.5419C31.5348 21.2975 31.5348 22.1101 31.5348 22.9796C31.5348 23.8491 31.5451 24.8324 31.5658 25.9296L28.0413 25.852C28.0723 24.7962 28.093 23.6783 28.1034 22.4982C28.1241 21.3078 28.1344 19.9881 28.1344 18.5389C28.1344 17.1001 28.1241 15.5423 28.1034 13.8654C28.0827 12.1885 28.0413 10.3253 27.9792 8.27575L32.0161 8.33785Z" fill="#F5F5F5"/>
<path d="M53.5827 8.15153C53.531 8.76225 53.4792 9.39367 53.4275 10.0458C53.3861 10.6876 53.3447 11.3345 53.3033 11.9866C53.2619 12.6284 53.2256 13.265 53.1946 13.8964C53.1739 14.5175 53.1532 15.1075 53.1325 15.6665C53.0807 16.9914 53.0445 18.2905 53.0238 19.5637C52.9617 20.7851 52.9254 21.9962 52.9151 23.1969C52.9151 24.3873 52.8789 25.5208 52.8064 26.5973C52.7339 27.6842 52.5942 28.6882 52.3872 29.6095C52.1905 30.5411 51.8645 31.3433 51.409 32.0161C50.9536 32.6993 50.3377 33.2324 49.5613 33.6154C48.7953 33.9984 47.8068 34.1899 46.5957 34.1899C45.6745 34.1899 44.9395 34.0553 44.3909 33.7862C43.8527 33.5274 43.4386 33.2065 43.1488 32.8235C42.8693 32.4509 42.683 32.0523 42.5898 31.6279C42.507 31.2035 42.4656 30.8257 42.4656 30.4945C42.4656 30.1426 42.5174 29.8113 42.6209 29.5008C42.7347 29.2006 42.89 28.9366 43.0867 28.7089C43.2833 28.4812 43.5214 28.3001 43.8009 28.1655C44.0907 28.0309 44.4168 27.9636 44.7791 27.9636C45.1621 27.9636 45.4985 28.0361 45.7883 28.181C46.0885 28.3259 46.3369 28.5122 46.5336 28.74C46.7406 28.9781 46.8959 29.242 46.9994 29.5318C47.1133 29.8217 47.1702 30.1115 47.1702 30.4013C47.1495 30.567 47.1081 30.7377 47.046 30.9137C46.9839 31.0586 46.8907 31.2191 46.7665 31.395C46.6526 31.5814 46.4767 31.7625 46.2386 31.9385C46.4767 32.0213 46.6992 32.0627 46.9063 32.0627C47.1754 32.0627 47.46 31.9799 47.7602 31.8143C48.0604 31.659 48.3347 31.4106 48.5831 31.069C48.8316 30.7274 49.0386 30.2978 49.2042 29.7803C49.3698 29.2627 49.463 28.6468 49.4837 27.9326L49.5458 23.6317C49.1421 24.3149 48.7281 24.8479 48.3037 25.2309C47.8896 25.6036 47.5118 25.8779 47.1702 26.0539C46.7665 26.2609 46.3835 26.3851 46.0212 26.4265C45.4933 26.4265 44.9602 26.2764 44.422 25.9762C43.8837 25.676 43.3972 25.1585 42.9625 24.4235C42.5277 23.6886 42.1706 22.7104 41.8911 21.489C41.6116 20.2572 41.4719 18.7149 41.4719 16.862C41.4719 15.6406 41.5444 14.5641 41.6893 13.6325C41.8342 12.6905 42.0309 11.8728 42.2793 11.1792C42.5277 10.4857 42.8175 9.90605 43.1488 9.44025C43.4904 8.9641 43.8527 8.58111 44.2357 8.29127C44.629 8.00144 45.0379 7.79442 45.4623 7.6702C45.8867 7.54599 46.3059 7.48388 46.7199 7.48388C47.0408 7.50459 47.3721 7.57704 47.7136 7.70126C48.0138 7.81512 48.3502 7.99109 48.7229 8.22917C49.0955 8.46724 49.4682 8.80883 49.8408 9.25393L49.934 7.76336L53.5827 8.15153ZM49.7476 12.0953C49.5096 11.6916 49.2301 11.3397 48.9092 11.0395C48.5987 10.7393 48.2519 10.5892 47.8689 10.5892C47.5791 10.5892 47.2841 10.6927 46.9839 10.8998C46.6941 11.0964 46.4301 11.4432 46.192 11.9401C45.9539 12.4266 45.7573 13.0787 45.602 13.8964C45.4571 14.7142 45.3846 15.7441 45.3846 16.9862C45.3846 18.1352 45.4364 19.0875 45.5399 19.8432C45.6434 20.5988 45.7832 21.2043 45.9591 21.6598C46.1351 22.1049 46.3369 22.4206 46.5647 22.6069C46.7924 22.7829 47.0356 22.8709 47.2944 22.8709C47.636 22.8709 47.931 22.7674 48.1794 22.5603C48.4382 22.3533 48.6556 22.1049 48.8316 21.8151C49.0075 21.5149 49.1525 21.2043 49.2663 20.8835C49.3905 20.5626 49.494 20.2831 49.5768 20.045C49.5976 18.689 49.6183 17.3537 49.639 16.0391C49.6597 14.7245 49.6959 13.4099 49.7476 12.0953Z" fill="#F5F5F5"/>
<path d="M66.6407 22.2032C66.6407 22.8139 66.501 23.3884 66.2215 23.9267C65.942 24.4649 65.5642 24.9308 65.088 25.3241C64.6119 25.7174 64.0529 26.028 63.4112 26.2557C62.7694 26.4834 62.0862 26.5973 61.3616 26.5973C60.8751 26.5973 60.3835 26.53 59.8866 26.3954C59.3897 26.2609 58.9136 26.0383 58.4581 25.7278C58.0027 25.4173 57.5731 25.0084 57.1694 24.5012C56.7657 23.994 56.4138 23.3729 56.1136 22.638C55.8238 21.903 55.5909 21.0439 55.4149 20.0605C55.2493 19.0668 55.1665 17.9282 55.1665 16.6447C55.1665 15.4336 55.2493 14.3622 55.4149 13.4306C55.5909 12.499 55.8238 11.6865 56.1136 10.9929C56.4138 10.2994 56.7605 9.71973 57.1539 9.25393C57.5472 8.77778 57.9665 8.39479 58.4116 8.10495C58.867 7.80477 59.3328 7.59257 59.809 7.46836C60.2955 7.34414 60.7716 7.28204 61.2374 7.28204C61.9309 7.28204 62.5882 7.3959 63.2093 7.62362C63.8304 7.841 64.3738 8.16706 64.8396 8.60181C65.3054 9.03656 65.6729 9.57482 65.942 10.2166C66.2215 10.848 66.3612 11.5778 66.3612 12.4059C66.3612 13.1511 66.206 13.9068 65.8954 14.6728C65.5953 15.4284 65.145 16.1478 64.5446 16.831C63.9442 17.5038 63.199 18.1197 62.3088 18.6787C61.4289 19.2273 60.4145 19.662 59.2655 19.9829C59.3276 20.6247 59.4156 21.2095 59.5295 21.7374C59.6537 22.2653 59.8038 22.7156 59.9798 23.0882C60.1661 23.4609 60.3783 23.7507 60.6164 23.9577C60.8648 24.1648 61.1494 24.2683 61.4703 24.2683C61.6773 24.2579 61.874 24.2217 62.0603 24.1596C62.226 24.1078 62.3916 24.025 62.5572 23.9112C62.7332 23.7973 62.8781 23.6317 62.9919 23.4143C62.7228 23.2901 62.5158 23.1297 62.3709 22.933C62.226 22.7363 62.1173 22.55 62.0448 22.374C61.962 22.167 61.9154 21.9496 61.9051 21.7219C61.9051 21.225 62.0034 20.8213 62.2001 20.5108C62.3968 20.2003 62.6297 19.957 62.8988 19.7811C63.1679 19.6051 63.4422 19.486 63.7217 19.4239C64.0012 19.3515 64.2237 19.3153 64.3893 19.3153C64.5653 19.3153 64.7775 19.3515 65.0259 19.4239C65.2847 19.4964 65.5331 19.6361 65.7712 19.8432C66.0093 20.0502 66.2112 20.3452 66.3768 20.7282C66.5527 21.1008 66.6407 21.5925 66.6407 22.2032ZM62.8056 12.4369C62.8056 12.0643 62.7694 11.7123 62.6969 11.3811C62.6348 11.0395 62.5365 10.7445 62.4019 10.4961C62.2777 10.2476 62.1173 10.051 61.9206 9.90605C61.7343 9.75079 61.5169 9.67315 61.2685 9.67315C60.8441 9.67315 60.4973 9.86982 60.2282 10.2632C59.9591 10.6462 59.7417 11.1585 59.5761 11.8003C59.4104 12.4421 59.2966 13.1822 59.2345 14.0206C59.1724 14.8591 59.1413 15.7338 59.1413 16.6447V17.7781C59.6692 17.4986 60.1557 17.1674 60.6008 16.7844C61.0563 16.4014 61.4444 15.9822 61.7653 15.5267C62.0966 15.0609 62.3502 14.5692 62.5261 14.0517C62.7125 13.5341 62.8056 12.9959 62.8056 12.4369Z" fill="#F5F5F5"/>
<path d="M79 3.47799C79 3.90238 78.9379 4.3009 78.8137 4.67355C78.6998 5.03584 78.5394 5.35155 78.3323 5.62068C78.1357 5.87945 77.8976 6.08648 77.6181 6.24175C77.349 6.38666 77.054 6.45912 76.7331 6.45912C76.4122 6.45912 76.112 6.40736 75.8325 6.30385C75.5634 6.18999 75.3253 6.04507 75.1183 5.8691C74.9113 5.68278 74.7457 5.47058 74.6215 5.23251C74.5076 4.98408 74.4507 4.7253 74.4507 4.45617C74.4507 4.43547 74.4507 4.36819 74.4507 4.25432C74.461 4.13011 74.4869 3.98002 74.5283 3.80405C74.5697 3.61773 74.6266 3.42106 74.6991 3.21403C74.7819 2.99666 74.9009 2.78446 75.0562 2.57744C74.549 2.57744 74.1505 2.70165 73.8606 2.95008C73.5708 3.19851 73.3534 3.54009 73.2085 3.97484C73.074 4.39924 72.986 4.90645 72.9446 5.49646C72.9135 6.07613 72.898 6.6972 72.898 7.35967V8.49312C73.5191 8.49312 74.1401 8.47759 74.7612 8.44654C75.3926 8.40514 76.0292 8.35856 76.671 8.3068L76.4847 12.0022C75.8947 11.9297 75.2995 11.8779 74.6991 11.8469C74.0987 11.8158 73.4984 11.79 72.898 11.7693C72.898 12.9596 72.9032 14.1449 72.9135 15.3249C72.9239 16.5049 72.9342 17.6332 72.9446 18.7097C72.9549 19.7862 72.9601 20.7903 72.9601 21.7219C72.9705 22.6431 72.9756 23.4454 72.9756 24.1285C72.986 24.8014 72.9912 25.3293 72.9912 25.7123C72.9912 26.1056 72.9912 26.3023 72.9912 26.3023L69.4511 26.4886C69.5028 25.7433 69.539 24.9152 69.5598 24.0043C69.5805 23.0831 69.5908 22.1101 69.5908 21.0853C69.5908 20.3297 69.5856 19.5585 69.5753 18.7718C69.5649 17.9748 69.5494 17.1829 69.5287 16.3962C69.508 15.5992 69.4873 14.8177 69.4666 14.0517C69.4459 13.2857 69.4304 12.5456 69.42 11.8314C69.0991 11.8521 68.7834 11.8779 68.4729 11.909C68.1727 11.9297 67.8622 11.9608 67.5413 12.0022L67.386 8.3068C67.7069 8.33785 68.033 8.36891 68.3642 8.39996C68.6954 8.42066 69.0267 8.44136 69.3579 8.46207V6.72307C69.3579 5.71901 69.4562 4.80811 69.6529 3.99037C69.8599 3.16228 70.1808 2.45322 70.6156 1.86321C71.0607 1.27319 71.63 0.817741 72.3235 0.496855C73.0274 0.165618 73.8762 0 74.8699 0C75.5531 0 76.1534 0.103512 76.671 0.310535C77.1885 0.517558 77.6181 0.791863 77.9597 1.13345C78.3013 1.46469 78.5601 1.83733 78.736 2.25138C78.912 2.66542 79 3.07429 79 3.47799Z" fill="#F5F5F5"/>
</svg>
