<svg width="18" height="18" viewBox="0 0 18 18" fill="none" xmlns="http://www.w3.org/2000/svg">
<g clip-path="url(#clip0_371_19461)">
<mask id="path-1-outside-1_371_19461" maskUnits="userSpaceOnUse" x="0" y="0" width="18" height="18" fill="black">
<rect fill="white" width="18" height="18"/>
<path d="M13.0097 9.04819C13.0097 11.1901 11.2698 12.9265 9.12338 12.9265C6.977 12.9265 5.23701 11.1901 5.23701 9.04819C5.23701 6.90627 6.977 5.1699 9.12338 5.1699C11.2698 5.1699 13.0097 6.90627 13.0097 9.04819Z"/>
</mask>
<path d="M13.0097 8.29819C12.5955 8.29819 12.2597 8.63398 12.2597 9.04819C12.2597 9.46241 12.5955 9.79819 13.0097 9.79819V8.29819ZM9.87338 12.9265C9.87338 12.5123 9.53759 12.1765 9.12338 12.1765C8.70916 12.1765 8.37338 12.5123 8.37338 12.9265H9.87338ZM5.23701 9.79819C5.65123 9.79819 5.98701 9.46241 5.98701 9.04819C5.98701 8.63398 5.65123 8.29819 5.23701 8.29819V9.79819ZM8.37338 5.1699C8.37338 5.58411 8.70916 5.9199 9.12338 5.9199C9.53759 5.9199 9.87338 5.58411 9.87338 5.1699H8.37338ZM9.87338 1C9.87338 0.585786 9.53759 0.25 9.12338 0.25C8.70916 0.25 8.37338 0.585786 8.37338 1H9.87338ZM8.37338 17.2422C8.37338 17.6564 8.70916 17.9922 9.12338 17.9922C9.53759 17.9922 9.87338 17.6564 9.87338 17.2422H8.37338ZM1 8.29819C0.585786 8.29819 0.25 8.63398 0.25 9.04819C0.25 9.46241 0.585786 9.79819 1 9.79819V8.29819ZM16.75 9.79819C17.1642 9.79819 17.5 9.46241 17.5 9.04819C17.5 8.63398 17.1642 8.29819 16.75 8.29819V9.79819ZM6.86346 12.9033C7.15666 12.6107 7.15715 12.1359 6.86456 11.8427C6.57197 11.5495 6.0971 11.549 5.8039 11.8416L6.86346 12.9033ZM2.80788 14.8314C2.51469 15.124 2.51419 15.5988 2.80678 15.892C3.09937 16.1852 3.57424 16.1857 3.86744 15.8931L2.80788 14.8314ZM15.9803 3.57208C16.2735 3.27949 16.274 2.80462 15.9814 2.51142C15.6889 2.21823 15.214 2.21773 14.9208 2.51032L15.9803 3.57208ZM11.9248 5.50012C11.6316 5.79271 11.6311 6.26759 11.9237 6.56078C12.2163 6.85398 12.6911 6.85447 12.9843 6.56188L11.9248 5.50012ZM13.2139 11.3409C12.9003 11.0703 12.4267 11.105 12.156 11.4186C11.8854 11.7321 11.9202 12.2057 12.2337 12.4764L13.2139 11.3409ZM15.4382 15.2425C15.7518 15.5132 16.2254 15.4784 16.496 15.1649C16.7667 14.8513 16.7319 14.3777 16.4184 14.107L15.4382 15.2425ZM3.23311 2.75269C2.91956 2.48203 2.44596 2.51681 2.1753 2.83036C1.90464 3.14392 1.93941 3.61751 2.25297 3.88817L3.23311 2.75269ZM5.45749 6.6543C5.77104 6.92496 6.24464 6.89019 6.5153 6.57663C6.78596 6.26308 6.75118 5.78948 6.43763 5.51882L5.45749 6.6543ZM9.87338 5.1699V1H8.37338V5.1699H9.87338ZM8.37338 12.9265V17.2422H9.87338V12.9265H8.37338ZM5.23701 8.29819H1V9.79819H5.23701V8.29819ZM13.0097 9.79819H16.75V8.29819H13.0097V9.79819ZM5.8039 11.8416L2.80788 14.8314L3.86744 15.8931L6.86346 12.9033L5.8039 11.8416ZM14.9208 2.51032L11.9248 5.50012L12.9843 6.56188L15.9803 3.57208L14.9208 2.51032ZM12.2337 12.4764L15.4382 15.2425L16.4184 14.107L13.2139 11.3409L12.2337 12.4764ZM2.25297 3.88817L5.45749 6.6543L6.43763 5.51882L3.23311 2.75269L2.25297 3.88817ZM11.5097 9.04819C11.5097 10.3588 10.4443 11.4265 9.12338 11.4265V14.4265C12.0952 14.4265 14.5097 12.0215 14.5097 9.04819H11.5097ZM9.12338 11.4265C7.80248 11.4265 6.73701 10.3588 6.73701 9.04819H3.73701C3.73701 12.0215 6.15151 14.4265 9.12338 14.4265V11.4265ZM6.73701 9.04819C6.73701 7.73763 7.80248 6.6699 9.12338 6.6699V3.6699C6.15151 3.6699 3.73701 6.07491 3.73701 9.04819H6.73701ZM9.12338 6.6699C10.4443 6.6699 11.5097 7.73763 11.5097 9.04819H14.5097C14.5097 6.07491 12.0952 3.6699 9.12338 3.6699V6.6699Z" fill="#F5F5F5" mask="url(#path-1-outside-1_371_19461)"/>
</g>
<defs>
<clipPath id="clip0_371_19461">
<rect width="18" height="18" fill="white"/>
</clipPath>
</defs>
</svg>
