<svg width="18" height="18" viewBox="0 0 18 18" fill="none" xmlns="http://www.w3.org/2000/svg">
<path d="M15.3 10.8788C15.3834 10.6232 15.3236 10.3426 15.1433 10.1432C14.963 9.94382 14.6898 9.85616 14.4272 9.91343C14.0697 9.99138 13.6979 10.0326 13.3156 10.0326C10.4496 10.0326 8.12631 7.70928 8.12631 4.84331C8.12631 4.2798 8.21586 3.73868 8.38094 3.23257C8.46429 2.97701 8.40451 2.69639 8.22422 2.497C8.04394 2.29761 7.77074 2.20995 7.5081 2.26722C4.50159 2.9229 2.25 5.59908 2.25 8.8029C2.25 12.4973 5.2449 15.4922 8.93929 15.4922C11.9101 15.4922 14.4268 13.5561 15.3 10.8788Z" stroke="white" stroke-width="1.5" stroke-linejoin="round"/>
</svg>
